<svg width="620" height="620" viewBox="0 0 620 620" fill="none" xmlns="http://www.w3.org/2000/svg">
<mask id="mask0_90946_140" style="mask-type:alpha" maskUnits="userSpaceOnUse" x="0" y="0" width="620" height="620">
<path d="M481.406 0.0134754H138.594C62.0526 0.0134754 0 62.0647 0 138.604V481.409C0 557.949 62.0526 620 138.594 620H481.406C557.947 620 620 557.949 620 481.409V138.591C620 62.0512 557.947 0 481.406 0V0.0134754Z" fill="white"/>
</mask>
<g mask="url(#mask0_90946_140)">
</g>
<g clip-path="url(#clip0_90946_140)">
<mask id="mask1_90946_140" style="mask-type:luminance" maskUnits="userSpaceOnUse" x="0" y="0" width="620" height="620">
<path d="M523.28 0H96.72C43.303 0 0 43.303 0 96.72V523.28C0 576.697 43.303 620 96.72 620H523.28C576.697 620 620 576.697 620 523.28V96.72C620 43.303 576.697 0 523.28 0Z" fill="white"/>
</mask>
<g mask="url(#mask1_90946_140)">
<path d="M620 0H0V620H620V0Z" fill="white"/>
<path d="M620 437.286V278.591C620 277.004 618.45 275.888 616.937 276.384L572.93 291.078C571.739 291.474 571.07 292.752 571.442 293.967L615.449 437.968C616.23 440.522 620 439.964 620 437.286Z" fill="#E9F1FE"/>
<path d="M2.3312 620H70.7172C72.292 620 73.408 618.462 72.9244 616.962L4.5384 404.934C3.72 402.417 0 403 0 405.654V617.681C0 618.971 1.0416 620.012 2.3312 620.012V620Z" fill="#E9F1FE"/>
<path d="M0 286.737V327.732C0 329.803 2.5048 330.844 3.968 329.381L22.7416 310.645C23.5972 309.789 23.6592 308.425 22.878 307.495L4.1044 285.225C2.7032 283.563 0 284.555 0 286.725L0 286.737Z" fill="#E9F1FE"/>
<path d="M231.732 620H281.344C283.316 620 284.395 617.694 283.117 616.181L273.197 604.413C272.602 603.706 271.647 603.421 270.755 603.682L231.075 615.449C228.508 616.218 229.053 620 231.732 620Z" fill="#E9F1FE"/>
<path d="M620.001 127.026V2.3188C620.001 1.0416 618.96 0 617.67 0H563.222C561.659 0 560.543 1.5128 561.002 3.0008L600.62 132.655C601.004 133.908 602.344 134.59 603.584 134.18L618.414 129.233C619.369 128.91 620.001 128.03 620.001 127.026Z" fill="#E9F1FE"/>
<path d="M572.706 142.104L529.789 1.6492C529.492 0.6696 528.587 0 527.57 0H484.765C483.203 0 482.087 1.5128 482.545 3.0008L529.43 156.426C529.814 157.678 531.153 158.36 532.393 157.951L571.23 144.981C572.421 144.584 573.09 143.307 572.718 142.092L572.706 142.104Z" fill="#E9F1FE"/>
<path d="M440.039 503.775C431.718 511.475 423.423 518.692 415.338 525.413C413.391 527.025 415.078 530.137 417.496 529.418L594.134 477.015C595.374 476.643 596.068 475.341 595.696 474.101L554.726 340.02C554.044 337.801 550.92 337.838 550.275 340.07C543.876 362.365 534.068 384.66 520.862 406.782C501.208 439.704 474.015 472.341 440.039 503.787V503.775Z" fill="#E9F1FE"/>
<path d="M60.76 278.132C60.76 244.503 67.3568 211.854 80.3644 181.114C92.9256 151.429 110.893 124.781 133.771 101.903C156.649 79.0252 183.309 61.0576 212.982 48.4964C243.722 35.4888 276.371 28.892 310 28.892C343.629 28.892 376.278 35.4888 407.018 48.4964C431.545 58.8752 454.001 72.9616 473.978 90.4456C475.738 91.9956 478.417 90.272 477.735 88.0276L451.335 1.6492C451.038 0.6696 450.132 0 449.116 0H2.3312C1.0416 0 0 1.0416 0 2.3188V233.827C0 234.372 0.1984 234.906 0.5456 235.327L57.9204 303.378C59.396 305.127 62.2356 303.924 62 301.642C61.194 293.818 60.7724 285.969 60.7724 278.132H60.76Z" fill="#E9F1FE"/>
<path d="M305.313 596.812L324.161 619.169C324.608 619.69 325.253 620 325.935 620H617.669C618.959 620 620.001 618.958 620.001 617.669V503.167C620.001 501.617 618.5 500.501 617.012 500.935L306.429 593.08C304.817 593.551 304.235 595.522 305.313 596.812Z" fill="#E9F1FE"/>
<path d="M543.045 187.972C550.175 207.353 559.363 250.195 561.645 261.07C561.93 262.434 563.331 263.227 564.658 262.793L618.412 244.85C619.367 244.528 619.999 243.648 619.999 242.643V162.986C619.999 161.398 618.449 160.282 616.936 160.778L544.483 184.971C543.243 185.392 542.586 186.744 543.032 187.972H543.045Z" fill="#E9F1FE"/>
<path d="M155.011 481.591C133.101 458.676 112.182 432.326 95.5782 402.516C91.6846 395.523 88.039 388.318 84.6786 380.94C84.5918 380.754 84.4802 380.581 84.3438 380.42L44.9242 333.659C44.0438 332.618 42.469 332.556 41.5018 333.51L20.521 354.442C19.901 355.062 19.6778 355.967 19.9506 356.798L104.32 618.363C104.63 619.318 105.523 619.975 106.527 619.975H111.822C112.045 619.975 112.269 619.938 112.479 619.876L248.073 579.65C249.685 579.179 250.268 577.208 249.189 575.918L215.251 535.668C215.151 535.544 215.04 535.432 214.916 535.345C195.621 520.304 174.901 502.349 155.011 481.566V481.591Z" fill="#E9F1FE"/>
<path d="M310 55.9983C187.773 55.9983 88.6602 155.111 88.6602 277.338C88.6602 442.792 292.107 555.024 308.897 563.729C309.591 564.088 310.385 564.076 311.067 563.704C327.745 554.503 531.328 435.835 531.328 277.338C531.328 155.111 432.227 55.9983 310 55.9983ZM463.004 375.645C377.977 305.461 242.048 305.461 157.059 375.645C155.98 376.538 154.368 376.303 153.611 375.125C76.0866 253.555 164.685 90.8299 310.025 91.3135C455.341 90.8299 543.951 253.53 466.451 375.112C465.695 376.29 464.083 376.538 463.004 375.645Z" fill="#0053E2"/>
<path d="M310.024 129.642C263.202 129.642 225.245 167.697 225.245 214.644C227.477 271.027 268.757 299.212 310.036 299.199C351.316 299.199 392.596 271.002 394.815 214.644C394.815 167.697 356.859 129.642 310.036 129.642H310.024Z" fill="#0053E2"/>
</g>
</g>
<defs>
<clipPath id="clip0_90946_140">
<rect width="620" height="620" fill="white"/>
</clipPath>
</defs>
</svg>
